<svg width="24" height="21" viewBox="0 0 24 21" fill="none" xmlns="http://www.w3.org/2000/svg">
<g filter="url(#filter0_d_243_67)">
<path d="M7 5C7 2.23858 9.23858 0 12 0C14.7614 0 17 2.23858 17 5C17 7.76142 14.7614 10 12 10C9.23858 10 7 7.76142 7 5ZM12 8C13.6569 8 15 6.65685 15 5C15 3.34315 13.6569 2 12 2C10.3431 2 9 3.34315 9 5C9 6.65685 10.3431 8 12 8Z" fill="#0F1828"/>
<path d="M6.34315 13.3431C4.84285 14.8434 4 16.8783 4 19H6C6 17.4087 6.63214 15.8826 7.75736 14.7574C8.88258 13.6321 10.4087 13 12 13C13.5913 13 15.1174 13.6321 16.2426 14.7574C17.3679 15.8826 18 17.4087 18 19H20C20 16.8783 19.1571 14.8434 17.6569 13.3431C16.1566 11.8429 14.1217 11 12 11C9.87827 11 7.84344 11.8429 6.34315 13.3431Z" fill="#0F1828"/>
</g>
<defs>
<filter id="filter0_d_243_67" x="0" y="0" width="24" height="27" filterUnits="userSpaceOnUse" color-interpolation-filters="sRGB">
<feFlood flood-opacity="0" result="BackgroundImageFix"/>
<feColorMatrix in="SourceAlpha" type="matrix" values="0 0 0 0 0 0 0 0 0 0 0 0 0 0 0 0 0 0 127 0" result="hardAlpha"/>
<feOffset dy="4"/>
<feGaussianBlur stdDeviation="2"/>
<feComposite in2="hardAlpha" operator="out"/>
<feColorMatrix type="matrix" values="0 0 0 0 0 0 0 0 0 0 0 0 0 0 0 0 0 0 0.25 0"/>
<feBlend mode="normal" in2="BackgroundImageFix" result="effect1_dropShadow_243_67"/>
<feBlend mode="normal" in="SourceGraphic" in2="effect1_dropShadow_243_67" result="shape"/>
</filter>
</defs>
</svg>
