<svg width="32" height="32" viewBox="0 0 32 32" fill="none" xmlns="http://www.w3.org/2000/svg">
<path d="M24 18.6667C22.5272 18.6667 21.3333 17.4728 21.3333 16C21.3333 14.5273 22.5272 13.3333 24 13.3333C25.4727 13.3333 26.6666 14.5273 26.6666 16C26.6666 16.7073 26.3857 17.3855 25.8856 17.8856C25.3855 18.3857 24.7072 18.6667 24 18.6667ZM16 18.6667C14.5272 18.6667 13.3333 17.4728 13.3333 16C13.3333 14.5273 14.5272 13.3333 16 13.3333C17.4727 13.3333 18.6666 14.5273 18.6666 16C18.6666 16.7073 18.3857 17.3855 17.8856 17.8856C17.3855 18.3857 16.7072 18.6667 16 18.6667ZM7.99998 18.6667C6.52722 18.6667 5.33331 17.4728 5.33331 16C5.33331 14.5273 6.52722 13.3333 7.99998 13.3333C9.47274 13.3333 10.6666 14.5273 10.6666 16C10.6666 16.7073 10.3857 17.3855 9.8856 17.8856C9.3855 18.3857 8.70722 18.6667 7.99998 18.6667Z" fill="#0F1828"/>
</svg>
